<svg width="1558" height="332" viewBox="0 0 1558 332" fill="none" xmlns="http://www.w3.org/2000/svg">
<mask id="path-1-outside-1_172_14" maskUnits="userSpaceOnUse" x="42" y="0" width="158" height="332" fill="black">
<rect fill="white" x="42" width="158" height="332"/>
<path fill-rule="evenodd" clip-rule="evenodd" d="M43 6C43 3.23857 45.2386 1 48 1H73V151H182C184.761 151 187 153.238 187 156V170C187 172.761 184.761 175 182 175H73V331H48C45.2386 331 43 328.761 43 326V6ZM194 1H73V25H194C196.761 25 199 22.7614 199 20V6C199 3.23858 196.761 1 194 1ZM194 307H73V331H194C196.761 331 199 328.761 199 326V312C199 309.239 196.761 307 194 307Z"/>
</mask>
<path fill-rule="evenodd" clip-rule="evenodd" d="M43 6C43 3.23857 45.2386 1 48 1H73V151H182C184.761 151 187 153.238 187 156V170C187 172.761 184.761 175 182 175H73V331H48C45.2386 331 43 328.761 43 326V6ZM194 1H73V25H194C196.761 25 199 22.7614 199 20V6C199 3.23858 196.761 1 194 1ZM194 307H73V331H194C196.761 331 199 328.761 199 326V312C199 309.239 196.761 307 194 307Z" fill="#FDC921"/>
<path d="M73 1H74V0H73V1ZM73 151H72V152H73V151ZM73 175V174H72V175H73ZM73 331V332H74V331H73ZM73 1V0H72V1H73ZM73 25H72V26H73V25ZM73 307V306H72V307H73ZM73 331H72V332H73V331ZM48 0C44.6863 0 42 2.68629 42 6H44C44 3.79086 45.7909 2 48 2V0ZM73 0H48V2H73V0ZM74 151V1H72V151H74ZM73 152H182V150H73V152ZM182 152C184.209 152 186 153.791 186 156H188C188 152.686 185.314 150 182 150V152ZM186 156V170H188V156H186ZM186 170C186 172.209 184.209 174 182 174V176C185.314 176 188 173.314 188 170H186ZM182 174H73V176H182V174ZM74 331V175H72V331H74ZM48 332H73V330H48V332ZM42 326C42 329.314 44.6863 332 48 332V330C45.7909 330 44 328.209 44 326H42ZM42 6V326H44V6H42ZM73 2H194V0H73V2ZM74 25V1H72V25H74ZM194 24H73V26H194V24ZM198 20C198 22.2091 196.209 24 194 24V26C197.314 26 200 23.3137 200 20H198ZM198 6V20H200V6H198ZM194 2C196.209 2 198 3.79086 198 6H200C200 2.68629 197.314 0 194 0V2ZM73 308H194V306H73V308ZM74 331V307H72V331H74ZM194 330H73V332H194V330ZM198 326C198 328.209 196.209 330 194 330V332C197.314 332 200 329.314 200 326H198ZM198 312V326H200V312H198ZM194 308C196.209 308 198 309.791 198 312H200C200 308.686 197.314 306 194 306V308Z" fill="white" mask="url(#path-1-outside-1_172_14)"/>
<mask id="path-3-outside-2_172_14" maskUnits="userSpaceOnUse" x="0" y="47" width="236" height="243" fill="black">
<rect fill="white" y="47" width="236" height="243"/>
<path fill-rule="evenodd" clip-rule="evenodd" d="M6 48C3.23858 48 1 50.2386 1 53V283C1 285.761 3.23858 288 6 288H25L24.9999 288H230C232.761 288 235 285.762 235 283V269C235 266.239 232.761 264 230 264H24.9999L25 174H41.9999V150H25V72.0001H230C232.761 72.0001 235 69.7615 235 67.0001V53.0001C235 50.2387 232.761 48.0001 230 48.0001H25V48H6Z"/>
</mask>
<path fill-rule="evenodd" clip-rule="evenodd" d="M6 48C3.23858 48 1 50.2386 1 53V283C1 285.761 3.23858 288 6 288H25L24.9999 288H230C232.761 288 235 285.762 235 283V269C235 266.239 232.761 264 230 264H24.9999L25 174H41.9999V150H25V72.0001H230C232.761 72.0001 235 69.7615 235 67.0001V53.0001C235 50.2387 232.761 48.0001 230 48.0001H25V48H6Z" fill="#FDC921"/>
<path d="M25 288L25.9487 288.316L26.3874 287H25V288ZM24.9999 288L24.0513 287.684L23.6125 289H24.9999V288ZM24.9999 264H23.9999V265H24.9999V264ZM25 174V173H24V174H25ZM41.9999 174V175H42.9999V174H41.9999ZM41.9999 150H42.9999V149H41.9999V150ZM25 150H24V151H25V150ZM25 72.0001V71.0001H24V72.0001H25ZM25 48.0001H24V49.0001H25V48.0001ZM25 48H26V47H25V48ZM2 53C2 50.7909 3.79086 49 6 49V47C2.68629 47 0 49.6863 0 53H2ZM2 283V53H0V283H2ZM6 287C3.79086 287 2 285.209 2 283H0C0 286.314 2.68629 289 6 289V287ZM25 287H6V289H25V287ZM25.9486 288.316L25.9487 288.316L24.0513 287.684L24.0513 287.684L25.9486 288.316ZM230 287H24.9999V289H230V287ZM234 283C234 285.209 232.209 287 230 287V289C233.314 289 236 286.314 236 283H234ZM234 269V283H236V269H234ZM230 265C232.209 265 234 266.791 234 269H236C236 265.686 233.314 263 230 263V265ZM24.9999 265H230V263H24.9999V265ZM24 174L23.9999 264H25.9999L26 174H24ZM41.9999 173H25V175H41.9999V173ZM40.9999 150V174H42.9999V150H40.9999ZM25 151H41.9999V149H25V151ZM24 72.0001V150H26V72.0001H24ZM230 71.0001H25V73.0001H230V71.0001ZM234 67.0001C234 69.2092 232.209 71.0001 230 71.0001V73.0001C233.314 73.0001 236 70.3138 236 67.0001H234ZM234 53.0001V67.0001H236V53.0001H234ZM230 49.0001C232.209 49.0001 234 50.791 234 53.0001H236C236 49.6864 233.314 47.0001 230 47.0001V49.0001ZM25 49.0001H230V47.0001H25V49.0001ZM24 48V48.0001H26V48H24ZM6 49H25V47H6V49Z" fill="white" mask="url(#path-3-outside-2_172_14)"/>
<path d="M436.733 48V73.0001H319.835V153H431.279V178.001H319.835V261.333H439.071V286.334H291V48H436.733ZM514.74 48V261.333H631.327V286.334H485.905V48H514.74ZM702.475 48V286.334H673.64V48H702.475ZM913.901 48V73.0001H843.763V286.334H814.928V73.0001H744.788V48H913.901ZM1097.27 48V73.0001H980.375V153H1091.82V178.001H980.375V261.333H1099.61V286.334H951.54V48H1097.27ZM1144.89 194.334V48H1173.72V194.334C1173.72 240.111 1195.02 262.999 1237.63 262.999C1280.23 262.999 1301.53 240.111 1301.53 194.334V48H1330.36V194.334C1330.36 256.779 1299.45 288 1237.63 288C1175.8 288 1144.89 256.779 1144.89 194.334ZM1384.99 286.334V48H1480.07C1522.46 48 1543.66 67.0556 1543.66 105.167C1543.66 136.166 1522.93 159.112 1481.47 174.001L1558 286.334H1519.97L1449.05 179.168V158.999C1491.65 151.778 1512.96 134.278 1512.96 106.5C1512.96 84.501 1501.11 73.4994 1477.42 73.4994H1413.83V286.334H1384.99Z" fill="#FDC921"/>
</svg>
